HIERARCHY
ROOT Hips
{
     OFFSET 1.88212 96.90440 -13.34250
     CHANNELS 6 Xposition Yposition Zposition Zrotation Xrotation Yrotation
     JOINT Spine
     {
          OFFSET 0.00000 11.89050 0.00000
          CHANNELS 3 Zrotation Xrotation Yrotation
          JOINT Spine1
          {
               OFFSET -0.00000 25.65740 0.12766
               CHANNELS 3 Zrotation Xrotation Yrotation
               JOINT HEad
               {
                    OFFSET 0.00000 8.73416 0.01134
                    CHANNELS 3 Zrotation Xrotation Yrotation
                    End Site
                    {
                         OFFSET -0.29000 12.77420 2.51395
                    }
               }
               JOINT LeftShoulder1
               {
                    OFFSET 8.99000 -0.36225 -0.22000
                    CHANNELS 3 Zrotation Xrotation Yrotation
                    JOINT LeftArm
                    {
                         OFFSET 10.28270 -0.00338 0.32212
                         CHANNELS 3 Zrotation Xrotation Yrotation
                         JOINT LeftForeArm
                         {
                              OFFSET 32.76690 0.09914 -1.42434
                              CHANNELS 3 Zrotation Xrotation Yrotation
                              JOINT LeftHand
                              {
                                   OFFSET 27.56430 0.08536 1.02216
                                   CHANNELS 3 Zrotation Xrotation Yrotation
                                   End Site
                                   {
                                        OFFSET 16.74430 -0.60000 1.50291
                                   }
                              }
                         }
                    }
               }
               JOINT RightShoulder
               {
                    OFFSET -8.99000 -0.36225 -0.22000
                    CHANNELS 3 Zrotation Xrotation Yrotation
                    JOINT RightArm
                    {
                         OFFSET -10.28270 -0.00338 0.32212
                         CHANNELS 3 Zrotation Xrotation Yrotation
                         JOINT RightForeArm
                         {
                              OFFSET -32.89710 0.09914 -1.42434
                              CHANNELS 3 Zrotation Xrotation Yrotation
                              JOINT RightHand
                              {
                                   OFFSET -27.49210 0.08536 1.02216
                                   CHANNELS 3 Zrotation Xrotation Yrotation
                                   End Site
                                   {
                                        OFFSET -16.63120 -0.60000 1.50291
                                   }
                              }
                         }
                    }
               }
          }
     }
     JOINT LeftUpLeg
     {
          OFFSET 8.94580 -8.66707 0.10165
          CHANNELS 3 Zrotation Xrotation Yrotation
          JOINT LeftLeg
          {
               OFFSET 0.00000 -44.42270 1.37270
               CHANNELS 3 Zrotation Xrotation Yrotation
               JOINT LeftFoot
               {
                    OFFSET -0.25355 -42.09240 -1.46059
                    CHANNELS 3 Zrotation Xrotation Yrotation
                    JOINT LeftToes
                    {
                         OFFSET -0.04000 -4.41509 8.49910
                         CHANNELS 3 Zrotation Xrotation Yrotation
                         End Site
                         {
                              OFFSET 0.08000 -0.04745 9.77979
                         }
                    }
               }
          }
     }
     JOINT RightUpLeg
     {
          OFFSET -8.94580 -8.66707 0.10165
          CHANNELS 3 Zrotation Xrotation Yrotation
          JOINT RightLeg
          {
               OFFSET 0.00000 -44.42270 1.37270
               CHANNELS 3 Zrotation Xrotation Yrotation
               JOINT RightFoot
               {
                    OFFSET 0.25355 -42.09240 -1.46059
                    CHANNELS 3 Zrotation Xrotation Yrotation
                    JOINT RightToes
                    {
                         OFFSET 0.04000 -4.41509 8.49910
                         CHANNELS 3 Zrotation Xrotation Yrotation
                         End Site
                         {
                              OFFSET -0.08000 -0.13745 9.77979
                         }
                    }
               }
          }
     }
}
MOTION
Frames: 13
Frame Time: 0.01667
-318.25916 86.40961 34.35500 16.59500 -9.01179 66.81487 7.08497 26.21392 -9.29705 -0.01925 0.01360 -0.00637 6.53894 -2.44726 -2.36590 -6.50438 13.13239 3.71928 -131.12537 -61.90325 -108.66488 -43.82936 51.30152 -68.28982 18.82481 8.19122 -12.47573 7.04251 13.95678 0.84705 88.26360 1.47640 73.41711 -1.84853 29.55781 107.54211 16.02864 9.79601 6.01754 23.77581 -15.64113 -39.75898 -25.56688 0.48739 75.27018 -6.32041 -0.01206 -0.00020 12.86332 3.90100 -42.62090 -21.85531 0.89300 -3.67342 20.16749 53.48729 -37.90217 -15.57030 0.00428 0.00467 49.33813 -69.89501 72.46860 
-316.44849 86.35043 33.86540 16.06921 -9.53480 65.93369 8.29795 25.75889 -8.60190 -0.01854 0.01231 -0.00718 7.06702 -2.38767 -0.28781 -6.77353 13.04065 2.82511 -130.30145 -62.39320 -108.50188 -43.01374 51.12374 -69.03037 18.97302 7.98624 -12.32324 6.72341 13.68281 -0.13366 88.58484 2.04386 73.52676 -2.01509 29.56630 107.82355 16.38680 9.90473 5.53401 23.46492 -16.74648 -38.34622 -26.22307 4.08409 74.31110 -7.37913 -0.01238 -0.01192 12.22954 2.97964 -42.71724 -21.74013 2.81376 -2.25003 19.77349 50.26073 -36.26681 -16.47148 0.00433 0.00832 45.05888 -69.16335 66.74727 
-314.68274 86.42046 33.39857 15.53013 -10.02194 65.15326 9.26397 25.42336 -7.97469 -0.01778 0.01110 -0.00762 7.57228 -2.28800 1.73808 -7.01468 12.87407 2.04505 -128.83018 -62.81582 -107.70599 -41.94852 50.80156 -69.99753 19.13679 7.46686 -12.10066 6.49782 13.36073 -0.99508 88.87838 2.44364 73.57964 -2.10619 29.58563 108.14089 16.77939 10.01948 5.06642 23.21483 -17.42901 -36.92186 -27.02575 7.53108 73.34268 -8.38116 -0.00672 -0.01719 11.63453 1.60282 -43.21155 -21.74077 4.41923 -0.83022 19.87792 47.11710 -35.02927 -17.54582 0.00498 0.01128 40.78061 -68.05218 61.10044 
-312.95688 86.60712 32.96193 15.00075 -10.46931 64.45528 9.96688 25.19546 -7.39725 -0.01665 0.00994 -0.00769 8.04070 -2.15688 3.68700 -7.19567 12.64106 1.40155 -126.79996 -63.13885 -106.30386 -40.70324 50.36204 -71.12714 19.26988 7.28523 -11.95909 6.38948 13.00105 -1.71650 89.11304 2.66541 73.57444 -2.13319 29.61323 108.48476 17.10879 10.07139 4.66699 23.10599 -17.49932 -34.32963 -27.48774 10.76046 71.29424 -9.07064 -0.00117 -0.01379 11.08658 0.13362 -44.00039 -21.84302 5.77353 0.60392 20.32232 44.13007 -34.06261 -18.71095 0.00587 0.01279 36.76870 -66.62676 55.83301 
-311.23843 86.90058 32.55558 14.51674 -10.87516 63.82775 10.40166 25.06954 -6.85750 -0.01507 0.00885 -0.00746 8.45659 -1.99872 5.53635 -7.29056 12.35670 0.91041 -124.37199 -63.33772 -104.40553 -39.36943 49.84204 -72.34708 19.38533 6.96982 -11.80152 6.41838 12.61993 -2.29116 89.26388 2.71381 73.50912 -2.11428 29.64441 108.85483 17.38851 10.12815 4.31089 23.12691 -16.98743 -30.67163 -27.41268 13.51793 68.24541 -9.31264 0.00195 -0.00625 10.61177 -1.23335 -45.00187 -21.94969 6.82503 2.06163 22.42554 42.02166 -32.72048 -32.97969 0.31046 0.21185 42.57424 -66.62421 47.77861 
-309.51462 87.26730 32.16457 14.11620 -11.22517 63.26356 10.58470 25.00666 -6.33313 -0.01377 0.00875 -0.00681 8.77670 -1.78855 7.24003 -7.54741 12.06705 1.28309 -121.06353 -63.61463 -100.94601 -38.44430 50.47049 -76.22082 19.11772 6.37880 -10.91981 6.57829 12.25524 -2.70898 89.32616 2.58242 73.39180 -2.08277 29.67692 109.22832 17.56298 10.15621 4.04308 23.00989 -16.43114 -27.25925 -27.15923 15.73309 65.57424 -9.14703 0.00238 0.00013 10.19828 -2.47721 -46.13426 -21.98660 7.65359 3.54006 22.13701 40.99385 -30.27535 -30.26029 -0.01932 -0.02132 33.92142 -65.00050 40.46606 
-307.80084 87.68701 31.77215 13.82775 -11.51571 62.77352 10.55827 24.98156 -5.82871 -0.00972 0.00745 -0.00552 8.96466 -1.51298 8.76560 -7.82038 11.79007 2.16023 -117.24926 -64.13409 -96.15913 -37.47713 52.15472 -82.51978 19.64796 6.63859 -7.53969 6.87602 11.92727 -2.94770 89.30138 2.28606 73.23524 -2.09750 29.71839 109.56291 17.63265 10.19834 3.87218 22.77199 -15.81435 -24.10278 -26.79663 17.46756 63.26784 -8.67012 0.00117 0.00405 9.81354 -3.64528 -47.35104 -21.99105 8.24954 5.02400 22.84817 40.00006 -29.28804 -30.01915 0.01043 -0.00376 28.83114 -63.44412 35.25085 
-306.13141 88.15855 31.37404 13.66303 -11.74576 62.36238 10.36521 24.98335 -5.35960 -0.00749 0.00823 -0.00479 9.00812 -1.18370 10.10868 -7.88147 11.53326 2.97445 -113.35416 -64.79739 -90.70658 -35.84731 54.39890 -90.36639 20.89150 7.21119 -3.38564 7.28602 11.64291 -3.08878 89.20241 1.90102 73.03133 -2.15682 29.76328 109.87381 17.65269 10.23816 3.77937 22.43957 -15.10730 -21.20325 -26.36853 18.78402 61.29460 -7.97508 -0.00062 0.00602 9.41389 -4.78775 -48.62112 -22.02998 8.62603 6.50051 24.22747 39.18360 -29.35458 -30.00463 0.01538 -0.00070 19.75497 -45.57410 28.21840 
-304.53268 88.67689 30.97553 13.61634 -11.91599 62.02828 10.04666 25.00130 -4.93526 -0.00590 0.00929 -0.00419 8.90276 -0.81612 11.26968 -7.76123 11.30995 3.64594 -109.36602 -65.34274 -84.82755 -33.06991 56.89245 -99.45644 22.12167 7.86614 0.89198 7.76316 11.40969 -3.14842 89.05687 1.44029 72.77918 -2.24981 29.80232 110.17895 17.62646 10.28258 3.76006 22.03915 -14.29058 -18.55487 -25.89729 19.73155 59.61660 -7.13369 -0.00238 0.00674 8.96360 -5.92500 -49.93575 -22.13955 8.78738 7.95301 26.00040 38.61895 -30.15489 -30.00638 0.01585 0.00076 19.59366 -52.98475 27.50468 
-303.17841 89.40018 30.63008 13.71322 -12.08988 61.73415 9.91273 24.45270 -4.77351 0.01683 -0.03352 -0.01522 8.74098 0.51822 11.99299 -5.85203 8.37948 4.04525 -99.15266 -67.11234 -70.99130 -28.12079 59.51858 -113.52517 20.81853 10.65573 2.15353 10.66530 8.90190 -2.71160 86.29596 -1.22026 70.13683 -2.53197 29.85464 111.28786 12.79915 13.61385 3.96841 21.45353 -13.54682 -15.66457 -24.92997 21.16634 56.06265 -4.72243 0.02080 -0.00838 4.86880 -5.75977 -44.01348 -21.87265 8.81603 9.26212 26.64946 37.99485 -29.83080 -29.60232 0.00458 -0.00380 24.07206 -51.96724 29.70496 
-302.29715 90.09250 30.25985 13.95920 -12.24571 61.46195 9.98240 23.40279 -4.90893 0.01567 -0.02857 -0.01527 8.41771 2.77678 12.36646 -2.27146 3.78914 3.43932 -84.18966 -68.45332 -51.66762 -21.41767 60.75954 -128.78716 17.87437 14.53795 2.24605 15.42764 5.00965 -1.74906 81.04076 -5.24546 65.84341 -3.10714 29.93375 112.98265 5.73773 18.10613 3.87343 20.73144 -13.04108 -12.50219 -23.66981 23.22802 50.88158 -2.38552 0.05511 -0.00582 1.05398 -5.85853 -38.25697 -21.28022 8.82149 10.39279 26.07283 37.34181 -28.30507 -28.67749 -0.00311 -0.01420 28.09690 -45.14857 30.51390 
-301.87418 90.74210 29.91067 14.34143 -12.35368 61.17530 10.12306 22.01922 -5.29153 0.01367 -0.02313 -0.01591 7.92043 5.89988 12.53168 2.65067 -1.80385 1.47986 -67.19120 -68.49860 -30.09382 -14.64566 60.19484 -142.57909 13.53010 17.95128 2.37782 21.58798 0.38135 -0.26289 73.36515 -9.63670 60.44426 -3.96093 29.98921 114.89169 -1.76834 22.90353 2.53849 19.90318 -12.85659 -9.03873 -22.19627 26.03452 44.27692 -0.23205 0.07923 -0.00212 -2.43111 -6.30598 -32.51907 -20.41267 8.85645 11.33203 24.41205 36.63255 -25.65197 -27.29620 -0.01488 -0.02953 31.20703 -35.01951 29.37750 
-301.87213 91.39638 29.57322 14.82230 -12.41948 60.79002 10.83470 19.28276 -6.68992 0.05174 -0.06945 -0.06054 6.55446 11.89953 12.40668 8.34342 -8.47504 -5.08209 -45.78749 -69.11635 -5.40753 -9.06348 57.18118 -150.66431 7.55941 18.40350 2.54896 31.00126 -5.37318 1.30140 59.31239 -13.83611 52.96186 -5.54271 30.08133 116.56276 1.64119 9.07172 3.62832 18.54208 -13.26027 -4.76252 -20.04924 31.51777 33.69937 -3.13106 -0.12813 -0.13849 -0.49078 -7.13405 -26.14775 -18.63535 8.61557 11.40804 20.62366 35.81919 -20.05540 -25.46251 -0.03766 -0.07135 38.32805 -21.03035 26.71856 
